<svg width="1024" height="1021" viewBox="0 0 1024 1021" fill="none" xmlns="http://www.w3.org/2000/svg">
<path fill-rule="evenodd" clip-rule="evenodd" d="M394.751 272.799C379.927 268.26 375.136 273.497 340.446 275.542C316.788 276.938 314.642 274.794 297.821 277.587C283.147 280.031 267.824 284.47 264.979 285.318C253.249 288.759 239.873 293.048 239.873 293.048C228.892 296.59 225.099 297.986 218.66 298.734C211.722 299.582 208.827 298.784 199.044 298.285C186.167 297.587 170.943 298.285 163.706 299.183C160.662 299.532 152.925 300.58 144.59 304.769C136.504 308.809 136.454 311.552 136.504 312.201C136.554 313.398 137.352 314.645 138.45 315.044C140.197 315.742 141.845 314.046 145.288 312.3C149.481 310.206 153.324 309.657 155.92 309.308C159.264 308.859 161.909 308.959 164.006 309.058C167.35 309.208 170.145 309.657 172.291 310.056C173.439 310.555 174.787 311.253 174.687 311.652C174.587 312.051 173.339 311.951 171.542 312.001C168.947 312.001 169.296 312.251 165.703 312.5C160.512 312.849 160.861 312.35 158.216 312.699C156.269 312.999 153.873 313.697 151.577 314.545C151.028 314.744 150.03 315.143 147.934 315.991C145.887 316.789 145.089 317.138 144.49 318.036C143.991 318.784 143.891 319.582 143.891 320.131C144.59 320.38 145.688 320.68 147.035 320.729C149.082 320.829 150.629 320.43 151.428 320.181C156.569 318.734 158.116 317.288 161.81 316.54C165.104 315.842 167.749 315.842 169.895 315.792C173.239 315.792 176.084 315.991 178.231 316.34C179.429 316.789 180.776 317.388 180.726 317.787C180.676 318.136 179.379 318.136 177.582 318.335C175.785 318.485 175.386 318.635 174.138 318.884C172.69 319.133 172.591 319.034 171.842 319.233C170.844 319.482 170.594 319.732 169.646 320.081C169.147 320.281 168.747 320.38 166.152 320.829C164.854 321.079 163.806 321.228 162.059 321.527C160.013 321.827 159.613 321.877 157.916 322.176C156.718 322.375 155.72 322.525 155.121 322.675C153.125 322.575 151.677 323.722 151.627 324.62C151.627 325.567 153.025 326.964 155.171 326.914C161.81 327.463 167.649 327.263 172.341 326.814C178.38 326.266 182.473 325.916 187.814 324.171C193.304 322.375 196 320.729 203.287 318.834C205.084 318.385 207.03 317.986 209.526 317.687C216.164 316.939 220.756 317.537 226.596 318.136C226.596 318.136 240.621 319.582 264.43 320.231C266.326 320.231 283.846 320.68 302.313 317.936C324.624 314.545 330.414 309.258 349.53 304.071C392.655 292.35 421.055 303.522 423.451 295.442C425.248 289.358 410.324 277.537 394.751 272.749V272.799ZM329.466 298.684C329.016 299.233 327.868 298.684 324.574 297.836C322.628 297.338 320.332 296.689 317.986 296.34C313.843 295.642 312.495 296.141 311.747 294.993C310.998 293.796 311.597 291.901 312.046 290.355C312.495 289.008 312.695 288.31 313.294 287.911C314.143 287.313 315.34 287.512 320.531 290.006C325.822 292.599 327.02 293.597 328.018 294.894C328.118 295.043 330.214 297.836 329.466 298.734V298.684Z" fill="#555555"/>
<path fill-rule="evenodd" clip-rule="evenodd" d="M872.713 304.17C870.018 303.273 867.872 302.525 864.627 301.577C864.627 301.577 860.784 300.43 857.19 299.632C848.655 297.637 836.726 298.485 833.632 298.734C826.744 299.183 816.761 299.682 803.734 299.632C798.244 298.884 792.005 297.886 785.117 296.49C778.578 295.193 771.79 293.647 764.703 291.801C751.226 288.26 739.147 284.17 728.616 280.08C715.189 279.831 701.813 279.632 688.436 279.432C679.402 277.088 667.972 274.844 654.645 274.095C640.969 273.297 629.09 274.195 619.707 275.542C616.063 276.44 609.225 278.684 602.587 284.22C596.048 289.657 592.854 295.692 591.406 298.983C613.018 298.983 638.623 300.53 666.974 305.268C690.283 309.158 710.947 314.445 728.616 319.981C741.992 321.577 758.014 322.525 776.083 321.477C789.259 320.729 801.139 319.133 811.471 317.138C827.742 324.32 837.974 325.866 842.965 326.265C845.76 326.465 854.994 326.964 865.077 327.163C866.724 327.163 868.071 327.213 868.92 327.263C869.169 327.113 870.817 326.216 870.717 325.168C870.717 324.57 870.118 324.121 868.171 323.323C863.729 321.527 859.187 321.029 859.187 321.029C855.993 320.779 853.796 320.779 850.552 319.682C849.055 319.133 846.709 318.335 846.709 317.038C846.709 316.091 847.907 315.343 848.456 314.994C849.953 315.442 852.249 316.041 855.094 316.689C855.244 316.689 855.394 316.739 855.643 316.789C859.886 317.687 865.775 318.435 870.417 319.083C875.808 319.782 877.804 320.081 881.049 319.832C881.947 319.782 882.696 319.682 883.195 319.582C884.143 319.233 884.393 318.934 884.393 318.684C884.493 316.889 872.713 314.844 870.916 314.545C866.524 313.797 863.23 313.547 861.433 313.447C858.638 313.298 856.192 313.298 854.345 313.348C852.848 313.248 852 311.951 852.199 311.053C852.399 310.205 853.697 309.457 855.044 309.906H863.879L876.007 311.951C877.655 312.45 879.551 312.899 881.648 313.248C884.143 313.647 886.439 313.846 888.436 313.896C889.584 312.899 889.783 312.101 889.733 311.602C889.634 309.607 885.99 308.759 872.613 304.17H872.713ZM709.899 294.594C709.05 295.293 708.501 295.392 707.503 295.991C705.556 297.088 705.706 297.537 704.608 297.886C703.41 298.235 703.061 297.687 701.264 297.637C698.419 297.537 696.622 298.884 696.322 298.435C696.123 298.136 696.821 297.338 697.57 296.539C698.868 295.143 700.166 293.697 702.412 293.048C703.16 292.799 703.959 292.749 705.556 292.699C707.603 292.549 710.897 292.35 711.096 293.198C711.196 293.597 710.597 294.096 709.899 294.644V294.594Z" fill="#555555"/>
<path fill-rule="evenodd" clip-rule="evenodd" d="M750.428 901.782C746.934 896.196 741.992 887.767 736.951 877.143C727.518 857.043 726.32 846.719 720.131 827.716C717.336 819.088 706.355 788.015 689.634 760.484C687.388 756.793 683.744 751.007 678.753 741.98C670.268 726.618 664.129 713.75 664.129 713.75C658.888 702.728 656.742 697.192 650.602 690.259C647.408 686.668 644.363 684.124 642.217 682.528L644.014 677.989C646.11 679.934 648.207 681.929 650.303 683.925C649.405 660.034 645.212 625.719 630.188 587.714C620.855 564.023 609.624 544.771 599.492 530.008C599.193 552.801 597.496 578.487 593.303 606.418C590.458 625.37 586.814 642.877 582.821 658.837C593.902 670.757 600.989 681.73 605.382 689.461C617.011 709.76 619.806 725.072 636.078 740.683C640.77 745.172 645.162 748.364 648.057 750.259L647.608 754.798C644.164 753.202 640.67 751.606 637.226 750.01C638.723 766.22 642.467 778.888 645.611 787.417C649.504 797.99 653.747 805.771 657.141 811.806C665.027 825.971 672.464 835.746 676.807 841.432C718.883 896.844 728.017 911.608 732.359 931.608C733.807 938.241 735.154 951.907 735.354 954.95C757.815 943.777 784.717 926.072 805.232 911.657C788.96 909.463 766.599 904.076 750.378 901.832L750.428 901.782ZM640.221 696.842C640.67 696.094 641.019 695.546 641.518 695.446C642.267 695.396 642.567 696.393 644.064 697.989C645.711 699.685 646.51 699.685 646.659 700.683C646.859 701.88 645.911 703.326 644.962 703.476C644.264 703.576 644.014 702.927 642.417 701.88C640.47 700.583 639.722 700.783 639.372 699.935C639.023 698.937 639.722 697.74 640.221 696.892V696.842ZM643.166 728.913C638.773 723.975 640.77 719.187 635.629 714.947C634.531 714.099 632.684 712.803 630.588 711.705C626.894 709.81 624.149 709.261 624.249 708.563C624.299 707.965 626.295 707.765 626.844 707.715C627.942 707.616 629.889 707.566 632.834 708.763C633.982 709.212 636.377 710.159 638.723 712.254C643.116 716.144 641.868 719.486 646.06 725.371C649.954 730.758 653.647 732.853 653.198 733.551C652.649 734.349 646.959 733.102 643.166 728.913Z" fill="#555555"/>
<path fill-rule="evenodd" clip-rule="evenodd" d="M425.048 605.62C421.205 577.939 419.458 552.203 419.009 528.911C399.094 558.038 388.213 583.824 382.123 601.63C376.433 618.089 370.244 636.293 367.299 661.032C365.802 673.85 366.351 678.339 363.156 688.014C358.315 702.578 350.129 713.102 337.302 729.312C326.371 743.127 325.522 742.13 319.233 750.758C313.943 758.09 307.903 767.965 298.62 792.454C284.195 830.559 284.844 843.378 270.469 875.847C266.626 884.525 263.082 891.458 260.736 895.947C247.659 899.139 225.598 904.326 212.521 907.468C229.84 922.929 254.996 939.787 276.059 948.167C276.059 941.084 279.703 923.428 283.047 910.909C286.84 896.994 293.179 883.827 333.858 830.36C351.128 807.666 356.219 801.831 361.459 789.362C369.346 770.609 374.187 754.399 374.187 754.399C376.583 746.369 376.633 745.022 378.48 740.883C383.72 729.212 389.76 725.521 398.345 713.9C404.035 706.169 403.536 704.922 410.573 693.351C415.714 684.922 423.501 673.251 434.881 659.934C431.087 643.126 427.743 624.971 425.048 605.52V605.62ZM370.843 686.468C372.041 684.573 371.542 683.376 372.64 682.778C373.838 682.129 375.934 682.877 376.283 684.074C376.383 684.473 376.333 684.822 375.335 686.618C374.037 688.862 373.389 690.009 372.64 690.409C370.743 691.356 368.048 690.608 367.848 689.71C367.699 688.962 369.495 688.663 370.843 686.468ZM352.276 730.608C351.727 731.307 350.529 732.354 349.431 732.055C347.584 731.606 347.135 727.716 347.184 725.521C347.334 721.98 349.081 718.688 349.83 718.838C350.329 718.888 350.03 720.284 350.978 722.678C351.776 724.623 352.375 724.673 352.775 726.219C352.974 726.967 353.473 729.012 352.276 730.608ZM378.829 724.274C377.881 726.369 376.433 727.666 375.285 728.613C372.939 730.658 372.29 730.209 369.096 732.454C366.251 734.499 366.051 735.396 363.656 736.494C363.406 736.593 359.663 738.289 358.914 737.342C358.015 736.194 362.158 731.805 362.857 731.007C365.652 728.065 367.05 727.516 370.544 724.673C376.433 719.785 378.03 716.593 379.228 717.142C380.426 717.74 380.077 721.531 378.829 724.224V724.274Z" fill="#555555"/>
<path d="M1015.73 510.399C1015.73 787.858 790.129 1012.8 511.867 1012.8C233.605 1012.8 8 787.858 8 510.399C8 232.94 233.555 8 511.867 8C790.179 8 1015.73 232.94 1015.73 510.399Z" stroke="#555555" stroke-width="16" stroke-miterlimit="8"/>
<path fill-rule="evenodd" clip-rule="evenodd" d="M509.45 127.877C515.09 127.777 519.482 131.517 527.119 138.101C531.511 141.892 534.556 144.535 537.002 148.326C544.588 159.997 542.342 176.356 536.303 187.628C534.756 190.57 524.174 210.371 507.454 209.423C492.679 208.576 484.494 192.166 482.148 187.428C476.408 175.857 474.212 158.75 482.497 147.428C484.594 144.535 487.189 142.39 492.38 138.051C500.516 131.318 504.559 127.926 509.35 127.827L509.45 127.877Z" fill="#555555"/>
<path fill-rule="evenodd" clip-rule="evenodd" d="M451.851 135.358C451.202 133.413 457.341 131.867 464.529 123.986C472.415 115.408 470.618 111.318 476.208 105.682C484.843 96.9537 498.669 96.9038 509.55 96.9038C520.181 96.9038 533.408 96.9038 542.642 105.433C549.829 112.016 547.583 117.253 556.767 126.231C565.202 134.51 573.438 136.206 572.839 138.051C572.04 140.495 556.917 138.351 545.187 135.258C532.06 131.817 521.279 128.974 515.789 120.046C512.195 114.211 512.245 107.876 510.199 107.876C508.152 107.876 508.102 114.211 503.86 120.046C502.861 121.443 499.318 126.031 486.49 130.769C471.466 136.306 452.949 138.55 451.851 135.308V135.358Z" fill="#555555"/>
<path fill-rule="evenodd" clip-rule="evenodd" d="M437.876 162.74C435.679 156.306 460.336 137.602 468.422 142.889C472.265 145.433 472.265 153.413 469.82 158.351C463.581 170.72 439.772 168.276 437.876 162.74Z" fill="#555555"/>
<path fill-rule="evenodd" clip-rule="evenodd" d="M581.274 157.603C582.123 151.767 555.719 140.495 549.23 146.43C546.136 149.273 547.633 155.957 550.827 159.697C558.913 169.024 580.575 162.64 581.274 157.603Z" fill="#555555"/>
<path fill-rule="evenodd" clip-rule="evenodd" d="M471.467 167.278C468.572 169.622 464.229 172.615 458.39 174.71C448.108 178.451 440.671 176.705 440.471 178.002C440.172 179.897 455.644 188.625 465.327 181.293C471.517 176.605 471.417 168.425 471.417 167.278H471.467Z" fill="#555555"/>
<path fill-rule="evenodd" clip-rule="evenodd" d="M550.328 167.278C552.974 169.622 556.917 172.615 562.207 174.71C571.591 178.451 578.279 176.705 578.479 178.002C578.728 179.897 564.703 188.625 555.869 181.293C550.228 176.655 550.328 168.425 550.328 167.278Z" fill="#555555"/>
<path fill-rule="evenodd" clip-rule="evenodd" d="M476.508 185.433C476.059 184.984 474.062 186.879 468.971 189.074C463.082 191.618 459.688 191.668 459.688 192.416C459.737 193.313 465.228 194.81 469.92 192.865C474.561 190.919 477.157 186.131 476.508 185.433Z" fill="#555555"/>
<path fill-rule="evenodd" clip-rule="evenodd" d="M566.6 190.57C566.5 189.722 563.456 190.271 557.466 188.825C550.478 187.129 547.434 184.685 546.985 185.483C546.386 186.48 550.279 192.067 555.769 193.413C561.21 194.81 566.75 191.717 566.65 190.52L566.6 190.57Z" fill="#555555"/>
<path fill-rule="evenodd" clip-rule="evenodd" d="M392.605 248.327C391.257 242.541 373.389 246.581 342.942 241.543C310.649 236.257 312.246 228.626 282.198 224.885C259.039 221.992 253.499 225.882 230.789 220.296C217.262 216.955 215.166 214.561 201.24 212.266C200.991 212.266 200.142 212.117 199.094 211.967C178.131 208.975 162.458 208.326 162.458 208.326C157.567 207.428 139.249 204.386 136.903 209.972C136.204 211.718 136.404 215.857 138.201 216.855C138.75 217.154 139.399 217.104 140.247 217.054C142.344 217.005 143.891 216.206 144.14 216.107C149.581 213.513 166.202 215.359 170.394 215.558C170.943 215.558 172.79 215.758 174.288 217.254C174.537 217.503 176.184 219.199 175.785 220.147C175.236 221.394 171.592 220.496 166.302 219.947C165.653 219.897 165.503 219.897 165.303 219.897C155.52 219.049 152.825 219 149.83 219.648C149.231 219.748 148.034 220.047 146.686 220.745C144.739 221.693 142.393 223.389 142.693 224.137C142.843 224.586 144.041 224.536 145.588 224.486C147.435 224.386 148.383 224.336 150.13 223.788C156.918 221.693 168.548 223.189 172.79 223.738C173.439 223.788 175.286 223.987 176.683 225.434C176.933 225.683 178.58 227.379 178.231 228.326C177.682 229.573 174.038 228.675 168.697 228.127C168.048 228.077 159.214 227.179 150.429 228.127C150.18 228.326 149.88 228.675 149.88 229.074C149.88 230.072 152.226 230.72 155.421 231.618C162.159 233.513 161.41 233.464 162.508 233.663C169.895 235.209 182.773 234.511 187.464 234.262C199.094 233.663 204.984 232.217 212.77 235.459C217.911 237.603 221.105 240.596 222.603 241.942C234.682 252.716 266.825 271.319 298.12 271.469C316.438 271.569 316.239 265.234 338.2 265.933C351.527 266.382 358.515 268.925 369.845 265.534C381.474 262.042 393.803 253.464 392.605 248.376V248.327ZM319.982 252.815C319.633 253.464 318.684 253.364 312.845 252.666C310.349 252.366 309.101 252.217 308.353 251.668C306.306 250.222 305.308 247.179 306.107 246.232C306.656 245.633 307.504 246.232 310.798 246.431C313.593 246.531 313.893 246.132 315.29 246.581C317.337 247.279 318.485 248.875 318.784 249.274C319.283 249.972 320.581 251.818 319.982 252.815Z" fill="#555555"/>
<path fill-rule="evenodd" clip-rule="evenodd" d="M609.624 265.434C615.514 265.284 624.149 264.835 634.78 263.389C631.836 258.85 626.844 252.416 619.058 246.681C613.667 242.641 608.476 240.147 604.334 238.451C599.792 237.454 592.854 236.456 584.568 237.454C577.081 238.351 571.142 240.496 567.099 242.341C565.851 243.04 553.373 249.823 542.292 243.888C535.854 240.446 533.009 234.411 531.362 230.92C527.369 222.391 527.818 214.461 528.317 210.77C525.672 210.92 520.83 211.618 515.839 214.71C512.794 216.605 510.698 218.75 509.3 220.396C507.903 218.551 505.707 216.057 502.362 213.862C497.82 210.87 493.478 209.822 490.883 209.423C491.581 212.965 492.979 223.039 487.289 232.965C485.692 235.758 481.749 242.641 474.162 245.284C470.868 246.431 468.073 246.331 453.798 243.04C435.08 238.7 432.335 237.104 424.898 237.454C420.905 237.653 414.866 238.002 408.477 241.493C405.033 243.389 403.236 245.184 395.3 252.416C390.608 256.656 386.765 260.097 384.319 262.242C393.304 264.137 400.641 264.885 405.532 265.184C418.559 266.082 424.898 264.785 438.375 266.082C445.462 266.781 451.152 267.828 454.646 268.576C454.896 270.671 455.095 272.766 455.345 274.86C442.318 274.112 429.29 273.414 416.263 272.666C425.647 280.895 430.988 288.826 434.032 294.511C443.516 311.968 441.369 324.886 452.25 333.863C458.39 338.851 465.577 340.198 470.369 340.547C472.764 340.547 477.456 340.297 482.597 337.704C488.038 334.961 491.082 331.07 492.48 329.125C493.428 331.22 494.426 333.265 495.375 335.31C494.277 337.155 492.23 340.048 488.786 342.542C484.045 345.983 479.303 346.831 476.957 347.081C473.613 347.679 469.221 348.128 464.179 347.779C457.042 347.28 451.302 345.435 447.459 343.789C447.708 347.031 448.307 352.068 449.605 358.003C452.101 369.674 455.095 374.562 456.892 381.894C458.389 388.128 459.388 397.405 456.094 410.024C448.856 423.889 440.72 442.593 435.03 465.585C428.941 490.074 427.593 511.621 427.743 527.93C427.893 548.23 429.34 571.222 432.984 596.16C435.629 614.116 439.023 630.625 442.767 645.637L504.159 552.17L446.71 469.077L452.35 464.139L509.899 545.337L566.35 463.541L572.24 469.625L515.939 553.866C536.203 584.439 556.518 615.063 576.782 645.637C580.276 632.47 583.47 618.056 585.916 602.395C590.408 573.766 591.456 547.781 590.807 525.536C590.208 505.336 587.713 488.778 585.217 476.758C582.173 461.795 578.429 450.174 577.131 446.283C574.985 439.7 572.789 434.014 571.741 431.271C566.151 416.807 565.152 417.356 563.555 411.52C560.011 398.702 562.357 387.131 563.306 382.343C564.953 374.013 566.799 372.916 569.145 362.293C570.892 354.512 571.491 347.978 571.741 343.689C568.696 344.786 565.053 345.834 560.81 346.632C556.368 347.43 552.325 347.729 548.931 347.779C545.936 347.579 541.194 346.831 535.954 344.337C531.312 342.143 528.067 339.4 526.021 337.405C526.021 334.711 525.971 332.018 525.921 329.325C527.718 331.519 532.709 337.105 541.194 339.549C547.034 341.245 552.075 340.746 554.87 340.248C563.655 337.654 568.746 333.564 571.741 330.472C583.72 318.003 579.278 302.841 591.955 285.634C595.998 280.147 600.341 276.456 603.186 274.262H563.306C563.256 272.367 563.156 270.471 563.056 268.576C566.75 267.778 572.589 266.731 579.777 266.032C591.556 264.885 597.845 265.633 609.724 265.334L609.624 265.434ZM463.63 326.432C461.135 326.432 459.088 324.387 459.088 321.943C459.088 319.499 461.135 317.404 463.63 317.404C466.126 317.404 468.172 319.449 468.172 321.943C468.172 324.437 466.126 326.432 463.63 326.432ZM509.749 440.997C506.954 440.997 504.658 438.702 504.658 435.909C504.658 433.116 506.954 430.822 509.749 430.822C512.545 430.822 514.841 433.116 514.841 435.909C514.841 438.702 512.545 440.997 509.749 440.997ZM555.719 326.931C553.223 326.931 551.227 324.886 551.227 322.392C551.227 319.898 553.273 317.853 555.719 317.853C558.165 317.853 560.261 319.898 560.261 322.392C560.261 324.886 558.215 326.931 555.719 326.931Z" fill="#555555"/>
<path fill-rule="evenodd" clip-rule="evenodd" d="M850.153 217.154C859.537 215.957 864.328 216.606 864.378 216.606C865.277 216.755 866.674 216.955 868.371 217.105C870.218 217.254 870.817 217.204 873.662 217.354C878.204 217.553 878.404 217.703 880.051 217.603C881.349 217.553 885.142 217.304 885.242 216.307C885.342 215.558 883.345 214.711 882.097 214.162C873.512 210.671 863.729 210.272 863.729 210.272C850.103 209.773 843.265 209.474 842.017 209.523C833.632 209.972 827.493 210.72 820.905 212.466C810.473 215.209 799.991 218.002 789.559 220.746C779.627 221.843 771.591 222.342 766.4 222.541C744.638 223.439 738.848 221.494 727.468 225.434C721.179 227.578 721.529 228.676 710.348 233.115C701.464 236.656 693.927 238.9 688.786 240.297C680.55 240.496 669.27 240.845 655.894 241.643C631.437 243.04 623.75 244.337 623.401 246.831C623.201 248.427 626.296 249.424 635.43 255.609C643.266 260.896 644.663 262.641 647.458 264.387C656.892 270.172 663.68 264.387 682.647 264.337C702.213 264.287 706.555 269.374 729.165 268.576C732.21 268.477 735.404 268.078 739.198 267.33C749.579 265.235 758.913 261.245 777.58 253.314C786.565 249.474 791.057 247.579 796.647 244.337C810.223 236.456 810.523 232.766 817.86 231.618C824.548 230.571 825.397 233.414 841.718 233.863C845.961 233.963 849.305 233.863 852.2 233.713C857.54 233.364 862.032 232.716 865.426 232.067C867.173 231.02 867.573 230.421 867.473 230.022C867.273 229.324 865.227 229.274 862.232 229.224C859.038 229.224 858.339 229.424 855.344 229.324C854.046 229.324 852.499 229.224 850.652 228.925C848.306 228.576 845.861 228.227 845.811 227.529C845.811 226.78 848.506 225.982 850.253 225.583C852.599 225.085 853.847 225.234 858.139 225.284C866.924 225.434 865.776 224.885 868.371 225.284C868.92 225.334 870.418 225.583 872.264 225.284C873.612 225.035 875.808 224.287 875.758 223.688C875.708 222.691 870.418 222.292 865.077 221.893C860.285 221.494 857.94 221.344 856.243 221.444C851.601 221.743 848.756 222.94 847.358 221.294C846.909 220.746 846.46 219.748 846.759 218.95C847.258 217.803 849.205 217.504 850.103 217.404L850.153 217.154ZM713.093 250.372C712.994 250.771 712.544 250.721 711.247 251.17C708.601 252.167 708.202 253.065 706.904 252.915C706.655 252.915 706.505 252.816 704.658 251.669C701.713 249.773 701.464 249.574 701.464 249.175C701.414 248.277 702.612 247.579 704.059 246.581C705.357 245.783 706.006 245.384 706.904 245.384C707.204 245.384 707.903 245.434 710.099 247.18C712.045 248.626 713.293 249.673 713.093 250.372Z" fill="#555555"/>
<path fill-rule="evenodd" clip-rule="evenodd" d="M479.752 232.167C479.003 231.369 476.009 234.062 469.67 235.309C462.682 236.705 457.741 235.209 457.441 236.257C457.142 237.154 460.386 238.8 462.882 239.548C464.129 239.947 469.021 241.444 473.713 239.299C478.055 237.304 480.651 233.015 479.752 232.167Z" fill="#555555"/>
<path fill-rule="evenodd" clip-rule="evenodd" d="M539.148 229.374C539.797 228.476 543.39 231.618 551.127 233.663C560.81 236.257 566.949 234.511 567.199 235.708C567.448 237.154 558.813 242.142 550.528 239.848C543.091 237.753 538.299 230.471 539.148 229.324V229.374Z" fill="#555555"/>
<path fill-rule="evenodd" clip-rule="evenodd" d="M551.476 898.059C559.812 863.046 564.005 845.54 564.254 829.629C564.753 801.898 558.864 790.327 559.063 748.731C559.113 736.86 559.662 727.135 560.111 720.8C558.115 725.688 556.168 730.576 554.222 735.464L548.681 730.027C554.721 720.501 561.459 708.232 566.949 693.169C571.242 681.398 573.887 670.575 575.584 661.298C554.871 630.774 534.207 600.3 513.493 569.776V749.728C515.49 753.12 518.734 757.808 523.875 762.347C530.064 767.833 536.353 770.676 540.446 772.222C539.198 773.918 537.9 775.614 536.652 777.31L522.178 768.132C521.878 774.467 521.18 783.793 519.383 795.015C517.786 805.29 515.989 812.672 515.589 814.417C509.4 841.25 517.137 892.573 516.987 920.902C516.887 938.608 507.404 977.361 502.462 1008.58C512.694 1008.98 523.775 1009.03 535.654 1008.48C549.031 1007.84 561.359 1006.59 572.589 1004.89C559.363 991.626 546.086 978.359 532.859 965.092C538 949.032 544.838 926.089 551.476 898.059ZM549.43 756.412C550.578 754.018 551.676 751.673 552.674 749.379C553.273 750.776 554.122 753.319 554.022 756.611C553.972 759.703 553.024 762.048 552.425 763.444C550.578 762.746 548.731 762.097 546.885 761.399C547.733 759.803 548.582 758.157 549.43 756.412Z" fill="#555555"/>
<path fill-rule="evenodd" clip-rule="evenodd" d="M508.103 1008.33L505.008 950.079C501.614 932.573 500.715 918.308 500.466 908.782C499.468 866.837 509.899 848.482 502.862 819.006C501.963 815.215 499.567 806.088 497.321 792.771C495.425 781.549 494.526 772.422 494.077 766.885C489.385 770.078 484.644 773.22 479.952 776.412L476.109 769.279C480.85 767.584 486.99 764.741 493.428 760.102C498.37 756.511 502.213 752.771 505.008 749.579V569.826L444.364 659.004C446.76 670.077 450.154 682.795 455.295 696.461C460.037 709.079 465.228 720.102 470.269 729.479L465.228 735.613L457.841 720.301C461.085 735.314 461.285 747.534 460.885 756.062C460.586 762.297 459.687 769.279 457.841 783.295C456.343 795.115 455.046 803.444 454.846 805.09C451.602 827.335 458.19 857.26 467.274 892.572C472.415 912.623 478.854 936.214 486.79 962.698C474.911 973.72 455.345 991.875 443.466 1002.9C450.503 1005.44 464.479 1006.04 474.661 1007.59C486.59 1009.43 499.867 1009.08 508.202 1008.48L508.103 1008.33ZM466.176 763.244C465.727 758.656 465.327 754.117 464.928 749.529C466.076 750.676 467.374 752.222 468.622 754.167C470.419 757.01 471.367 759.753 471.866 761.748C469.969 762.247 468.073 762.746 466.126 763.244H466.176Z" fill="#555555"/>
<path fill-rule="evenodd" clip-rule="evenodd" d="M471.517 759.902C469.969 760.301 468.422 760.701 466.875 761.1C466.525 757.359 466.226 753.618 465.876 749.828C466.775 750.775 467.873 752.022 468.871 753.668C470.319 756.012 471.067 758.257 471.517 759.902Z" fill="#555555"/>
<path d="M121.979 192.765V827.235" stroke="#555555" stroke-width="12" stroke-miterlimit="10"/>
<path d="M903.359 192.765V827.235" stroke="#555555" stroke-width="12" stroke-miterlimit="10"/>
<path d="M126.871 199.149H451.801" stroke="#555555" stroke-width="12" stroke-miterlimit="10"/>
<path d="M572.839 199.149H903.36" stroke="#555555" stroke-width="12" stroke-miterlimit="10"/>
</svg>
