<svg width="977" height="976" viewBox="0 0 977 976" fill="none" xmlns="http://www.w3.org/2000/svg">
<path d="M968.381 487.921C968.381 752.966 753.377 967.842 488.19 967.842C223.004 967.842 8 752.966 8 487.921C8 222.876 222.956 8 488.19 8C753.425 8 968.381 222.876 968.381 487.921Z" stroke="#555555" stroke-width="16" stroke-miterlimit="8"/>
<path fill-rule="evenodd" clip-rule="evenodd" d="M485.888 126.334C491.263 126.239 495.449 129.812 502.726 136.101C506.912 139.722 509.814 142.247 512.145 145.868C519.375 157.017 517.234 172.644 511.479 183.412C510.004 186.223 499.92 205.138 483.985 204.233C469.905 203.423 462.104 187.748 459.868 183.221C454.398 172.168 452.305 155.826 460.201 145.011C462.199 142.247 464.673 140.199 469.62 136.054C477.373 129.622 481.226 126.382 485.792 126.286L485.888 126.334Z" fill="#555555"/>
<path fill-rule="evenodd" clip-rule="evenodd" d="M430.995 133.481C430.376 131.623 436.227 130.146 443.077 122.618C450.592 114.423 448.88 110.516 454.207 105.133C462.436 96.7948 475.613 96.7472 485.982 96.7472C496.114 96.7472 508.719 96.7472 517.519 104.894C524.369 111.183 522.228 116.186 530.981 124.762C539.02 132.671 546.868 134.291 546.297 136.054C545.536 138.388 531.123 136.34 519.945 133.386C507.435 130.098 497.16 127.382 491.928 118.854C488.503 113.28 488.551 107.229 486.601 107.229C484.65 107.229 484.603 113.28 480.559 118.854C479.608 120.188 476.231 124.571 464.006 129.098C449.688 134.386 432.041 136.53 430.995 133.433V133.481Z" fill="#555555"/>
<path fill-rule="evenodd" clip-rule="evenodd" d="M417.676 159.637C415.583 153.491 439.082 135.625 446.788 140.675C450.45 143.105 450.45 150.728 448.119 155.445C442.173 167.261 419.484 164.926 417.676 159.637Z" fill="#555555"/>
<path fill-rule="evenodd" clip-rule="evenodd" d="M554.337 154.73C555.145 149.156 529.982 138.388 523.799 144.058C520.849 146.774 522.276 153.158 525.321 156.731C533.027 165.641 553.671 159.542 554.337 154.73Z" fill="#555555"/>
<path fill-rule="evenodd" clip-rule="evenodd" d="M449.689 163.973C446.93 166.212 442.791 169.071 437.226 171.072C427.427 174.645 420.34 172.978 420.149 174.217C419.864 176.027 434.61 184.365 443.838 177.361C449.736 172.883 449.641 165.069 449.641 163.973H449.689Z" fill="#555555"/>
<path fill-rule="evenodd" clip-rule="evenodd" d="M524.844 163.973C527.366 166.212 531.123 169.071 536.165 171.072C545.108 174.645 551.482 172.978 551.672 174.217C551.91 176.027 538.544 184.365 530.124 177.361C524.749 172.93 524.844 165.069 524.844 163.973Z" fill="#555555"/>
<path fill-rule="evenodd" clip-rule="evenodd" d="M454.493 181.316C454.065 180.887 452.162 182.697 447.31 184.794C441.697 187.223 438.463 187.271 438.463 187.986C438.51 188.843 443.743 190.273 448.214 188.415C452.638 186.556 455.111 181.983 454.493 181.316Z" fill="#555555"/>
<path fill-rule="evenodd" clip-rule="evenodd" d="M540.352 186.223C540.257 185.413 537.355 185.937 531.647 184.555C524.988 182.935 522.086 180.601 521.658 181.363C521.087 182.316 524.797 187.652 530.03 188.939C535.215 190.273 540.495 187.319 540.399 186.175L540.352 186.223Z" fill="#555555"/>
<path fill-rule="evenodd" clip-rule="evenodd" d="M374.532 241.395C373.248 235.868 356.219 239.727 327.203 234.915C296.427 229.865 297.949 222.576 269.314 219.002C247.243 216.239 241.963 219.955 220.32 214.619C207.429 211.427 205.431 209.14 192.16 206.948C191.922 206.948 191.114 206.805 190.115 206.662C170.136 203.804 155.2 203.184 155.2 203.184C150.539 202.327 133.082 199.42 130.846 204.757C130.18 206.424 130.37 210.379 132.083 211.331C132.606 211.617 133.224 211.57 134.033 211.522C136.031 211.474 137.505 210.712 137.743 210.617C142.928 208.139 158.768 209.902 162.763 210.093C163.287 210.093 165.047 210.283 166.474 211.713C166.712 211.951 168.281 213.571 167.901 214.476C167.378 215.667 163.905 214.81 158.863 214.285C158.245 214.238 158.102 214.238 157.912 214.238C148.588 213.428 146.02 213.38 143.166 214C142.595 214.095 141.453 214.381 140.169 215.048C138.314 215.953 136.078 217.573 136.364 218.288C136.506 218.716 137.648 218.669 139.123 218.621C140.883 218.526 141.786 218.478 143.451 217.954C149.92 215.953 161.003 217.382 165.047 217.906C165.665 217.954 167.425 218.145 168.757 219.526C168.995 219.765 170.564 221.384 170.232 222.29C169.708 223.481 166.236 222.623 161.146 222.099C160.528 222.051 152.108 221.194 143.737 222.099C143.499 222.29 143.213 222.623 143.213 223.004C143.213 223.957 145.449 224.577 148.493 225.434C154.915 227.245 154.201 227.197 155.248 227.388C162.288 228.865 174.56 228.198 179.031 227.959C190.115 227.388 195.728 226.006 203.148 229.103C208.047 231.152 211.092 234.01 212.519 235.297C224.03 245.588 254.663 263.359 284.488 263.502C301.945 263.597 301.755 257.546 322.684 258.213C335.385 258.642 342.044 261.072 352.842 257.832C363.925 254.497 375.674 246.302 374.532 241.443V241.395ZM305.322 245.683C304.989 246.302 304.085 246.207 298.52 245.54C296.142 245.254 294.953 245.111 294.239 244.587C292.289 243.206 291.338 240.299 292.099 239.394C292.622 238.822 293.43 239.394 296.57 239.585C299.234 239.68 299.519 239.299 300.851 239.727C302.801 240.394 303.895 241.919 304.181 242.3C304.656 242.967 305.893 244.73 305.322 245.683Z" fill="#555555"/>
<path fill-rule="evenodd" clip-rule="evenodd" d="M376.578 262.502C362.451 258.166 357.885 263.169 324.825 265.122C302.279 266.456 300.233 264.407 284.203 267.076C270.218 269.41 255.615 273.65 252.904 274.46C241.726 277.748 228.978 281.845 228.978 281.845C218.513 285.228 214.898 286.562 208.762 287.277C202.15 288.087 199.391 287.324 190.068 286.848C177.795 286.181 163.287 286.848 156.39 287.706C153.488 288.039 146.116 289.04 138.172 293.042C130.466 296.901 130.418 299.521 130.466 300.141C130.514 301.284 131.275 302.475 132.321 302.856C133.986 303.523 135.556 301.904 138.838 300.236C142.833 298.235 146.496 297.711 148.97 297.377C152.157 296.949 154.678 297.044 156.675 297.139C159.862 297.282 162.526 297.711 164.572 298.092C165.666 298.568 166.95 299.235 166.855 299.617C166.76 299.998 165.571 299.902 163.858 299.95C161.385 299.95 161.718 300.188 158.293 300.427C153.346 300.76 153.679 300.284 151.158 300.617C149.303 300.903 147.019 301.57 144.831 302.38C144.308 302.571 143.357 302.952 141.359 303.762C139.409 304.524 138.648 304.857 138.077 305.715C137.601 306.43 137.506 307.192 137.506 307.716C138.172 307.954 139.218 308.24 140.503 308.288C142.453 308.383 143.927 308.002 144.689 307.764C149.588 306.382 151.063 305 154.583 304.286C157.722 303.619 160.243 303.619 162.288 303.571C165.475 303.571 168.187 303.762 170.232 304.095C171.374 304.524 172.658 305.096 172.61 305.477C172.563 305.81 171.326 305.81 169.614 306.001C167.901 306.144 167.521 306.287 166.332 306.525C164.952 306.763 164.857 306.668 164.144 306.859C163.192 307.097 162.954 307.335 162.051 307.668C161.575 307.859 161.194 307.954 158.721 308.383C157.484 308.621 156.485 308.764 154.82 309.05C152.87 309.336 152.49 309.384 150.872 309.67C149.731 309.86 148.779 310.003 148.209 310.146C146.306 310.051 144.926 311.147 144.879 312.004C144.879 312.909 146.211 314.243 148.256 314.196C154.583 314.72 160.148 314.529 164.619 314.1C170.375 313.576 174.275 313.243 179.365 311.575C184.597 309.86 187.166 308.288 194.111 306.477C195.823 306.049 197.678 305.667 200.057 305.382C206.383 304.667 210.759 305.239 216.325 305.81C216.325 305.81 229.691 307.192 252.381 307.811C254.188 307.811 270.884 308.24 288.484 305.62C309.747 302.38 315.264 297.33 333.483 292.375C374.581 281.178 401.646 291.851 403.93 284.132C405.642 278.32 391.419 267.028 376.578 262.454V262.502ZM314.361 287.229C313.932 287.753 312.838 287.229 309.699 286.419C307.844 285.943 305.656 285.323 303.42 284.99C299.472 284.323 298.188 284.799 297.474 283.703C296.761 282.56 297.332 280.749 297.76 279.273C298.188 277.986 298.378 277.319 298.949 276.938C299.757 276.366 300.899 276.557 305.846 278.939C310.888 281.417 312.03 282.369 312.981 283.608C313.076 283.751 315.074 286.419 314.361 287.277V287.229Z" fill="#555555"/>
<path fill-rule="evenodd" clip-rule="evenodd" d="M581.354 257.737C586.967 257.594 595.196 257.165 605.328 255.784C602.522 251.448 597.765 245.302 590.345 239.823C585.207 235.964 580.26 233.581 576.312 231.961C571.984 231.009 565.372 230.056 557.476 231.009C550.341 231.866 544.68 233.915 540.827 235.678C539.638 236.345 527.746 242.824 517.186 237.155C511.05 233.867 508.339 228.102 506.769 224.767C502.964 216.62 503.392 209.044 503.867 205.519C501.346 205.662 496.732 206.329 491.976 209.283C489.074 211.093 487.076 213.142 485.744 214.714C484.412 212.951 482.32 210.569 479.133 208.473C474.804 205.614 470.666 204.614 468.192 204.232C468.858 207.615 470.19 217.239 464.767 226.721C463.245 229.389 459.487 235.964 452.257 238.489C449.118 239.584 446.454 239.489 432.85 236.345C415.012 232.2 412.396 230.675 405.308 231.009C401.503 231.199 395.747 231.533 389.659 234.868C386.377 236.678 384.664 238.393 377.101 245.302C372.63 249.352 368.967 252.639 366.636 254.688C375.198 256.498 382.191 257.213 386.852 257.499C399.267 258.356 405.308 257.118 418.151 258.356C424.906 259.023 430.329 260.024 433.658 260.739C433.896 262.74 434.086 264.741 434.324 266.742C421.909 266.027 409.494 265.36 397.079 264.645C406.022 272.507 411.112 280.082 414.013 285.514C423.051 302.189 421.005 314.529 431.375 323.105C437.226 327.869 444.076 329.156 448.642 329.489C450.925 329.489 455.397 329.251 460.296 326.774C465.481 324.153 468.382 320.437 469.714 318.579C470.618 320.58 471.569 322.533 472.473 324.487C471.427 326.249 469.476 329.013 466.194 331.395C461.675 334.682 457.157 335.492 454.921 335.731C451.734 336.302 447.548 336.731 442.744 336.398C435.942 335.921 430.471 334.158 426.809 332.586C427.046 335.683 427.617 340.495 428.854 346.165C431.232 357.314 434.086 361.983 435.799 368.986C437.226 374.942 438.177 383.804 435.038 395.858C428.141 409.103 420.387 426.969 414.964 448.934C409.161 472.327 407.877 492.909 408.02 508.489C408.162 527.88 409.542 549.844 413.014 573.666C415.535 590.818 418.77 606.589 422.337 620.929L480.845 531.644L426.095 452.269L431.47 447.552L486.315 525.117L540.114 446.98L545.727 452.793L492.071 533.264C511.383 562.47 530.743 591.723 550.055 620.929C553.385 608.351 556.429 594.582 558.76 579.622C563.041 552.274 564.04 527.451 563.422 506.202C562.851 486.906 560.472 471.088 558.094 459.606C555.192 445.313 551.625 434.211 550.388 430.495C548.343 424.206 546.25 418.775 545.251 416.154C539.923 402.337 538.972 402.861 537.45 397.287C534.073 385.043 536.308 373.989 537.212 369.415C538.782 361.459 540.542 360.41 542.777 350.262C544.442 342.83 545.013 336.588 545.251 332.491C542.349 333.539 538.877 334.54 534.834 335.302C530.6 336.064 526.747 336.35 523.513 336.398C520.659 336.207 516.14 335.492 511.145 333.11C506.721 331.014 503.63 328.393 501.679 326.488C501.679 323.915 501.632 321.342 501.584 318.769C503.297 320.866 508.053 326.202 516.14 328.536C521.705 330.156 526.509 329.68 529.173 329.203C537.545 326.726 542.397 322.819 545.251 319.865C556.667 307.954 552.434 293.47 564.516 277.033C568.369 271.792 572.507 268.266 575.218 266.17H537.212C537.164 264.36 537.069 262.549 536.974 260.739C540.494 259.976 546.06 258.976 552.909 258.309C564.135 257.213 570.128 257.928 581.449 257.642L581.354 257.737ZM442.22 316.006C439.842 316.006 437.892 314.052 437.892 311.718C437.892 309.383 439.842 307.382 442.22 307.382C444.599 307.382 446.549 309.336 446.549 311.718C446.549 314.1 444.599 316.006 442.22 316.006ZM486.172 425.445C483.509 425.445 481.321 423.253 481.321 420.585C481.321 417.917 483.509 415.725 486.172 415.725C488.836 415.725 491.024 417.917 491.024 420.585C491.024 423.253 488.836 425.445 486.172 425.445ZM529.982 316.482C527.603 316.482 525.701 314.529 525.701 312.147C525.701 309.765 527.651 307.811 529.982 307.811C532.313 307.811 534.31 309.765 534.31 312.147C534.31 314.529 532.36 316.482 529.982 316.482Z" fill="#555555"/>
<path fill-rule="evenodd" clip-rule="evenodd" d="M810.581 211.618C819.523 210.474 824.09 211.094 824.137 211.094C824.994 211.237 826.326 211.427 827.943 211.57C829.703 211.713 830.274 211.665 832.985 211.808C837.314 211.999 837.504 212.142 839.073 212.046C840.31 211.999 843.925 211.761 844.021 210.808C844.116 210.093 842.213 209.283 841.024 208.759C832.842 205.424 823.519 205.043 823.519 205.043C810.533 204.566 804.017 204.28 802.827 204.328C794.836 204.757 788.985 205.472 782.706 207.139C772.765 209.76 762.776 212.428 752.834 215.048C743.368 216.096 735.71 216.573 730.763 216.763C710.024 217.621 704.506 215.763 693.661 219.527C687.667 221.575 688 222.623 677.345 226.864C668.878 230.247 661.696 232.391 656.796 233.725C648.948 233.915 638.197 234.249 625.449 235.011C602.142 236.345 594.816 237.584 594.483 239.966C594.293 241.491 597.242 242.444 605.947 248.351C613.415 253.402 614.747 255.069 617.411 256.737C626.401 262.264 632.87 256.737 650.945 256.689C669.592 256.642 673.73 261.501 695.278 260.739C698.18 260.644 701.224 260.262 704.839 259.548C714.733 257.547 723.628 253.735 741.418 246.16C749.98 242.491 754.261 240.681 759.589 237.584C772.527 230.056 772.812 226.53 779.805 225.435C786.179 224.434 786.987 227.15 802.542 227.579C806.585 227.674 809.772 227.579 812.531 227.436C817.621 227.102 821.902 226.483 825.136 225.863C826.801 224.863 827.182 224.291 827.087 223.91C826.896 223.243 824.946 223.195 822.092 223.148C819.048 223.148 818.382 223.338 815.528 223.243C814.291 223.243 812.816 223.148 811.056 222.862C808.821 222.528 806.49 222.195 806.442 221.528C806.442 220.813 809.011 220.051 810.676 219.67C812.912 219.193 814.101 219.336 818.192 219.384C826.563 219.527 825.469 219.003 827.943 219.384C828.466 219.431 829.893 219.67 831.653 219.384C832.937 219.145 835.03 218.431 834.983 217.859C834.935 216.906 829.893 216.525 824.803 216.144C820.237 215.763 818.001 215.62 816.384 215.715C811.96 216.001 809.249 217.144 807.917 215.572C807.489 215.048 807.061 214.095 807.346 213.333C807.822 212.237 809.677 211.951 810.533 211.856L810.581 211.618ZM679.961 243.349C679.866 243.73 679.438 243.682 678.201 244.111C675.68 245.064 675.3 245.922 674.063 245.779C673.825 245.779 673.682 245.683 671.923 244.588C669.116 242.777 668.878 242.586 668.878 242.205C668.831 241.348 669.972 240.681 671.352 239.728C672.588 238.965 673.207 238.584 674.063 238.584C674.348 238.584 675.014 238.632 677.107 240.3C678.962 241.681 680.152 242.682 679.961 243.349Z" fill="#555555"/>
<path fill-rule="evenodd" clip-rule="evenodd" d="M832.081 292.47C829.512 291.612 827.467 290.898 824.375 289.992C824.375 289.992 820.712 288.897 817.287 288.134C809.153 286.228 797.785 287.038 794.836 287.277C788.271 287.705 778.758 288.182 766.343 288.134C761.11 287.42 755.165 286.467 748.6 285.133C742.369 283.894 735.9 282.417 729.145 280.654C716.302 277.271 704.791 273.365 694.754 269.458C681.959 269.219 669.211 269.029 656.463 268.838C647.853 266.599 636.96 264.455 624.26 263.74C611.226 262.978 599.905 263.836 590.963 265.122C587.49 265.98 580.974 268.124 574.647 273.412C568.416 278.605 565.372 284.37 563.992 287.515C584.589 287.515 608.991 288.992 636.009 293.518C658.223 297.234 677.916 302.285 694.754 307.573C707.502 309.098 722.771 310.003 739.991 309.002C752.548 308.288 763.869 306.763 773.716 304.857C789.223 311.718 798.974 313.195 803.731 313.576C806.394 313.767 815.194 314.243 824.803 314.434C826.373 314.434 827.657 314.482 828.466 314.529C828.703 314.386 830.273 313.529 830.178 312.528C830.178 311.956 829.607 311.528 827.752 310.765C823.519 309.05 819.19 308.574 819.19 308.574C816.146 308.335 814.053 308.335 810.961 307.287C809.534 306.763 807.298 306.001 807.298 304.762C807.298 303.857 808.44 303.142 808.963 302.809C810.39 303.238 812.578 303.809 815.289 304.429C815.432 304.429 815.575 304.476 815.813 304.524C819.856 305.381 825.469 306.096 829.893 306.716C835.03 307.383 836.933 307.668 840.024 307.43C840.881 307.383 841.594 307.287 842.07 307.192C842.974 306.858 843.211 306.573 843.211 306.334C843.307 304.619 832.081 302.666 830.368 302.38C826.182 301.665 823.043 301.427 821.331 301.332C818.667 301.189 816.336 301.189 814.576 301.236C813.149 301.141 812.34 299.902 812.531 299.045C812.721 298.235 813.958 297.52 815.242 297.949H823.661L835.22 299.902C836.79 300.379 838.597 300.808 840.595 301.141C842.974 301.522 845.162 301.713 847.064 301.761C848.158 300.808 848.349 300.045 848.301 299.569C848.206 297.663 844.734 296.853 831.986 292.47H832.081ZM676.917 283.322C676.108 283.989 675.585 284.084 674.633 284.656C672.778 285.704 672.921 286.133 671.875 286.467C670.733 286.8 670.4 286.276 668.688 286.228C665.976 286.133 664.264 287.42 663.978 286.991C663.788 286.705 664.454 285.943 665.168 285.18C666.404 283.846 667.641 282.465 669.782 281.845C670.495 281.607 671.256 281.559 672.778 281.512C674.729 281.369 677.868 281.178 678.058 281.988C678.153 282.369 677.583 282.846 676.917 283.37V283.322Z" fill="#555555"/>
<path fill-rule="evenodd" clip-rule="evenodd" d="M457.585 225.958C456.871 225.196 454.017 227.769 447.976 228.96C441.317 230.294 436.608 228.865 436.322 229.865C436.037 230.723 439.129 232.295 441.507 233.01C442.696 233.391 447.358 234.82 451.829 232.771C455.967 230.866 458.441 226.768 457.585 225.958Z" fill="#555555"/>
<path fill-rule="evenodd" clip-rule="evenodd" d="M514.189 223.29C514.808 222.433 518.233 225.434 525.606 227.388C534.834 229.865 540.684 228.198 540.922 229.341C541.16 230.723 532.931 235.487 525.035 233.296C517.947 231.295 513.381 224.339 514.189 223.243V223.29Z" fill="#555555"/>
<path fill-rule="evenodd" clip-rule="evenodd" d="M715.541 863.343C712.211 858.007 707.502 849.955 702.698 839.807C693.708 820.606 692.566 810.744 686.668 792.592C684.004 784.349 673.539 754.667 657.604 728.367C655.464 724.841 651.991 719.315 647.235 710.691C639.148 696.017 633.298 683.724 633.298 683.724C628.303 673.195 626.258 667.907 620.407 661.284C617.363 657.854 614.461 655.424 612.416 653.899L614.128 649.563C616.126 651.422 618.124 653.327 620.121 655.233C619.265 632.412 615.27 599.632 600.952 563.327C592.057 540.696 581.354 522.306 571.698 508.203C571.413 529.976 569.795 554.513 565.8 581.194C563.088 599.299 559.616 616.022 555.811 631.268C566.371 642.655 573.125 653.137 577.311 660.522C588.394 679.913 591.058 694.54 606.565 709.452C611.036 713.74 615.222 716.79 617.981 718.6L617.553 722.936C614.271 721.411 610.941 719.886 607.659 718.362C609.086 733.846 612.653 745.948 615.65 754.095C619.36 764.196 623.404 771.628 626.638 777.393C634.154 790.924 641.241 800.262 645.38 805.694C685.479 858.627 694.184 872.729 698.322 891.835C699.701 898.171 700.986 911.226 701.176 914.132C722.581 903.46 748.22 886.546 767.77 872.777C752.263 870.681 730.953 865.535 715.494 863.391L715.541 863.343ZM610.513 667.573C610.941 666.858 611.274 666.334 611.75 666.239C612.463 666.191 612.749 667.144 614.176 668.669C615.745 670.289 616.506 670.289 616.649 671.242C616.839 672.385 615.936 673.767 615.032 673.91C614.366 674.005 614.128 673.386 612.606 672.385C610.751 671.146 610.037 671.337 609.704 670.527C609.371 669.574 610.037 668.431 610.513 667.621V667.573ZM613.319 698.208C609.133 693.492 611.036 688.918 606.137 684.868C605.09 684.058 603.33 682.819 601.332 681.771C597.812 679.96 595.196 679.436 595.291 678.769C595.339 678.198 597.242 678.007 597.765 677.96C598.811 677.864 600.666 677.817 603.473 678.96C604.567 679.389 606.85 680.294 609.086 682.295C613.272 686.011 612.083 689.204 616.078 694.826C619.789 699.971 623.308 701.972 622.88 702.639C622.357 703.402 616.934 702.21 613.319 698.208Z" fill="#555555"/>
<path fill-rule="evenodd" clip-rule="evenodd" d="M405.451 580.432C401.788 553.989 400.124 529.405 399.695 507.155C380.716 534.979 370.347 559.611 364.543 576.62C359.121 592.343 353.222 609.733 350.416 633.365C348.989 645.609 349.512 649.897 346.468 659.14C341.854 673.052 334.053 683.105 321.828 698.59C311.411 711.787 310.602 710.834 304.609 719.077C299.567 726.08 293.811 735.514 284.963 758.907C271.217 795.307 271.835 807.552 258.136 838.568C254.473 846.859 251.096 853.481 248.86 857.769C236.397 860.818 215.373 865.773 202.91 868.775C219.416 883.545 243.39 899.648 263.463 907.653C263.463 900.887 266.936 884.021 270.123 872.062C273.738 858.77 279.779 846.192 318.546 795.117C335.004 773.439 339.856 767.864 344.851 755.953C352.366 738.039 356.98 722.555 356.98 722.555C359.263 714.884 359.311 713.598 361.071 709.643C366.065 698.494 371.821 694.969 380.003 683.867C385.425 676.483 384.95 675.291 391.657 664.238C396.556 656.186 403.977 645.037 414.822 632.316C411.207 616.26 408.02 598.918 405.451 580.336V580.432ZM353.793 657.663C354.935 655.853 354.459 654.709 355.506 654.137C356.647 653.518 358.645 654.233 358.978 655.376C359.073 655.757 359.026 656.091 358.074 657.806C356.837 659.95 356.219 661.046 355.506 661.427C353.698 662.332 351.129 661.618 350.939 660.76C350.796 660.045 352.509 659.759 353.793 657.663ZM336.098 699.828C335.575 700.495 334.433 701.496 333.387 701.21C331.627 700.781 331.199 697.065 331.246 694.969C331.389 691.586 333.054 688.441 333.767 688.584C334.243 688.632 333.958 689.966 334.861 692.253C335.623 694.111 336.193 694.159 336.574 695.636C336.764 696.35 337.24 698.304 336.098 699.828ZM361.404 693.777C360.5 695.779 359.121 697.017 358.027 697.923C355.791 699.876 355.173 699.447 352.128 701.591C349.417 703.545 349.227 704.402 346.944 705.45C346.706 705.546 343.138 707.165 342.425 706.26C341.568 705.164 345.516 700.972 346.182 700.209C348.846 697.398 350.178 696.874 353.508 694.159C359.121 689.489 360.643 686.44 361.784 686.964C362.926 687.536 362.593 691.157 361.404 693.73V693.777Z" fill="#555555"/>
<path fill-rule="evenodd" clip-rule="evenodd" d="M525.939 862.058C533.883 828.611 537.879 811.888 538.116 796.69C538.592 770.199 532.979 759.146 533.169 719.411C533.217 708.071 533.74 698.781 534.168 692.73C532.266 697.399 530.41 702.068 528.555 706.737L523.275 701.544C529.031 692.444 535.453 680.723 540.685 666.335C544.776 655.091 547.297 644.752 548.914 635.89C529.174 606.732 509.481 577.621 489.741 548.463V720.363C491.643 723.603 494.735 728.082 499.635 732.417C505.533 737.658 511.526 740.374 515.427 741.851C514.238 743.471 513.001 745.091 511.812 746.711L498.017 737.944C497.732 743.995 497.066 752.904 495.354 763.624C493.831 773.439 492.119 780.49 491.738 782.158C485.84 807.791 493.213 856.817 493.07 883.879C492.975 900.792 483.937 937.812 479.228 967.637C488.98 968.018 499.539 968.066 510.86 967.542C523.608 966.923 535.357 965.732 546.06 964.112C533.455 951.438 520.802 938.765 508.197 926.091C513.096 910.75 519.613 888.834 525.939 862.058ZM523.989 726.748C525.083 724.461 526.129 722.221 527.081 720.03C527.652 721.364 528.46 723.794 528.365 726.938C528.318 729.892 527.414 732.132 526.843 733.466C525.083 732.799 523.323 732.179 521.563 731.512C522.372 729.988 523.18 728.415 523.989 726.748Z" fill="#555555"/>
<path fill-rule="evenodd" clip-rule="evenodd" d="M484.603 967.399L481.654 911.75C478.419 895.027 477.563 881.401 477.325 872.301C476.374 832.232 486.315 814.699 479.608 786.541C478.752 782.92 476.469 774.201 474.328 761.48C472.521 750.76 471.665 742.041 471.237 736.753C466.765 739.802 462.246 742.804 457.775 745.853L454.112 739.04C458.631 737.42 464.482 734.704 470.618 730.273C475.327 726.843 478.99 723.27 481.654 720.22V548.51L423.86 633.698C426.143 644.275 429.377 656.425 434.277 669.479C438.796 681.533 443.743 692.063 448.547 701.02L443.743 706.88L436.703 692.253C439.795 706.594 439.985 718.267 439.604 726.414C439.319 732.37 438.463 739.04 436.703 752.428C435.276 763.72 434.039 771.676 433.849 773.249C430.757 794.498 437.036 823.084 445.693 856.817C450.592 875.97 456.729 898.505 464.292 923.804C452.971 934.334 434.324 951.676 423.003 962.206C429.71 964.636 443.029 965.207 452.733 966.684C464.101 968.447 476.754 968.114 484.698 967.542L484.603 967.399ZM444.646 733.275C444.218 728.892 443.838 724.556 443.457 720.173C444.551 721.269 445.788 722.746 446.977 724.604C448.69 727.319 449.593 729.94 450.069 731.846C448.262 732.322 446.454 732.798 444.599 733.275H444.646Z" fill="#555555"/>
<path d="M116.624 188.32V794.402" stroke="#555555" stroke-width="12" stroke-miterlimit="10"/>
<path d="M861.287 188.32V794.402" stroke="#555555" stroke-width="12" stroke-miterlimit="10"/>
<path d="M121.285 194.418H430.947" stroke="#555555" stroke-width="12" stroke-miterlimit="10"/>
<path d="M546.298 194.418H861.287" stroke="#555555" stroke-width="12" stroke-miterlimit="10"/>
</svg>
